<svg width="165" height="164" fill="none" xmlns="http://www.w3.org/2000/svg"><path d="M74.918 37.86l6.008 19.477-4.49.196-6.256-20.248a2.166 2.166 0 01.467-2.042c.255-.324.603-.564.996-.687a5.838 5.838 0 10-6.119-1.762 2.177 2.177 0 01.3 2.404 2.18 2.18 0 01-3.597.448 10.187 10.187 0 1112.69 2.213zm29.832 6.812l5.472 20.534c1.309 4.743-.076 9.08-2.793 12.163l-2.634-3.684a8.988 8.988 0 001.198-7.346l-3.923-14.8-1.614 3.378a2.183 2.183 0 01-3.945-1.874l4.163-8.741a2.195 2.195 0 014.076.37z" fill="#1E1E1E"/><path fill-rule="evenodd" clip-rule="evenodd" d="M115.344 103.897a92.53 92.53 0 00-6.386-21.82 16.776 16.776 0 01-18.713 2.464 16.775 16.775 0 01-5.221-4.099 2.187 2.187 0 01-4.096.196 2.19 2.19 0 01-.002-1.721c.546-1.224 2.364-5.24 3.478-7.702l.707-1.562a2.18 2.18 0 113.967 1.809l-2.027 4.49 1.09 1.417c5.602 6.966 14.506 5.425 19.288 0l-2.634-3.684A94.391 94.391 0 00101.917 69a62.058 62.058 0 00-9.482-11.553 2.147 2.147 0 00-1.548-.545l-39.89 1.766a2.2 2.2 0 00-1.438 3.727 69.949 69.949 0 0118.593 36.838c5.613 22.998-16.242 40.873-16.479 40.958a2.19 2.19 0 001.308 3.902l48.849 1.112a2.183 2.183 0 001.657-.719c14.973-16.442 12.042-39.159 11.862-40.556l-.005-.032zM91.812 88.765c-21.067.647-21.023 26.451 0 27.091 21.078-.631 21.115-26.456 0-27.091z" fill="#C80000"/><path d="M102.369 103.039c.074.536-.196 1.089-.811 1.659-.592.555-1.522 1.079-2.791 1.571-1.246.478-2.748.867-4.508 1.164l.175 1.253-2.423.337-.177-1.268c-2.537.259-4.611.232-6.224-.08-1.614-.321-2.51-.932-2.686-1.833l5.678-.791c.255.721 1.251 1.04 2.989.956l-.412-2.955c-1.842.067-3.332.086-4.469.055-1.136-.031-2.137-.196-3.002-.497-.865-.3-1.347-.805-1.446-1.517-.125-.898.555-1.738 2.041-2.524 1.511-.788 3.51-1.398 5.997-1.829l-.175-1.253 2.423-.337.175 1.253c2.434-.255 4.406-.225 5.916.09 1.536.312 2.455.91 2.759 1.793l-5.716.796c-.118-.29-.42-.51-.903-.663-.46-.167-1.064-.246-1.809-.237l.408 2.924c1.92-.067 3.435-.085 4.546-.05 1.136.021 2.135.181 3 .481.864.29 1.346.79 1.445 1.502zm-14.595-2.824c.047.34.339.584.873.73.534.135 1.29.204 2.267.205l-.373-2.677c-.901.178-1.6.417-2.1.719-.497.3-.72.641-.667 1.023zm6.244 5.486c.949-.206 1.671-.47 2.167-.791.52-.325.756-.663.708-1.013-.048-.341-.351-.577-.91-.709-.559-.133-1.34-.198-2.342-.195l.377 2.708z" fill="#C80000"/></svg>