<svg width="165" height="164" fill="none" xmlns="http://www.w3.org/2000/svg"><g clip-path="url(#clip0_307_51)"><mask id="mask0_307_51" style="mask-type:luminance" maskUnits="userSpaceOnUse" x="0" y="0" width="165" height="164"><path d="M164.5 0H.5v164h164V0z" fill="#fff"/></mask><g mask="url(#mask0_307_51)"><path d="M148.009 46.056l-3.922-1.207a1.73 1.73 0 01-1.2-1.914l.621-4.061a1.73 1.73 0 00-1.446-1.97l-4.056-.624a1.727 1.727 0 01-1.465-1.72l.023-4.108a1.728 1.728 0 00-1.717-1.739l-4.103-.026a1.728 1.728 0 01-1.7-1.487l-.575-4.069a1.73 1.73 0 00-1.953-1.47l-4.061.572a1.729 1.729 0 01-1.9-1.225l-1.16-3.941a1.73 1.73 0 00-2.146-1.171l-3.935 1.157a1.73 1.73 0 01-2.057-.934l-1.721-3.731a1.728 1.728 0 00-2.293-.846l-3.725 1.718a1.728 1.728 0 01-2.171-.625l-2.245-3.44a1.728 1.728 0 00-2.392-.504l-3.435 2.242c-.717.469-1.67.34-2.238-.302l-2.723-3.077a1.727 1.727 0 00-2.439-.15l-3.071 2.72a1.727 1.727 0 01-2.259.027l-3.141-2.648a1.727 1.727 0 00-2.435.207l-2.642 3.138a1.727 1.727 0 01-2.23.355L66.604 9.04a1.727 1.727 0 00-2.379.56l-2.157 3.49a1.727 1.727 0 01-2.155.676l-3.77-1.63a1.726 1.726 0 00-2.272.9l-1.626 3.766a1.726 1.726 0 01-2.033.983l-3.967-1.064a1.727 1.727 0 00-2.116 1.221l-1.06 3.964a1.726 1.726 0 01-1.869 1.269l-4.08-.476a1.727 1.727 0 00-1.914 1.517l-.473 4.076a1.727 1.727 0 01-1.663 1.528l-4.105.124a1.727 1.727 0 00-1.674 1.78l.126 4.101a1.727 1.727 0 01-1.423 1.754l-4.043.72a1.727 1.727 0 00-1.397 2.005l.722 4.04c.15.844-.34 1.67-1.152 1.942l-3.895 1.302a1.728 1.728 0 00-1.09 2.187l1.302 3.892a1.727 1.727 0 01-.858 2.09l-3.663 1.855a1.728 1.728 0 00-.76 2.323l1.855 3.661a1.728 1.728 0 01-.545 2.193l-3.354 2.369a1.728 1.728 0 00-.413 2.409l2.367 3.352c.495.7.402 1.658-.219 2.249L7.878 79a1.729 1.729 0 00-.059 2.443l2.83 2.973c.591.62.638 1.582.11 2.256L8.232 89.91a1.728 1.728 0 00.297 2.425l3.233 2.529a1.73 1.73 0 01.438 2.216l-2.03 3.57a1.73 1.73 0 00.646 2.358l3.566 2.031a1.728 1.728 0 01.756 2.129l-1.49 3.828a1.73 1.73 0 00.984 2.238l3.823 1.49a1.729 1.729 0 011.058 1.996l-.916 4.005a1.73 1.73 0 001.299 2.071l3.999.918a1.73 1.73 0 011.337 1.821l-.324 4.096a1.73 1.73 0 001.586 1.86l4.09.326a1.73 1.73 0 011.588 1.607l.276 4.1a1.73 1.73 0 001.84 1.609l4.092-.274a1.728 1.728 0 011.805 1.359l.87 4.016a1.73 1.73 0 002.054 1.325l4.01-.867a1.728 1.728 0 011.983 1.082l1.445 3.847a1.728 1.728 0 002.225 1.011l3.84-1.441a1.728 1.728 0 012.12.782l1.989 3.595a1.727 1.727 0 002.348.676l3.59-1.985a1.727 1.727 0 012.21.465l2.49 3.267c.58.76 1.664.906 2.422.328l3.262-2.488a1.726 1.726 0 012.254.139l2.94 2.87a1.728 1.728 0 002.444-.029l2.864-2.937a1.727 1.727 0 012.25-.191l3.327 2.411c.772.56 1.852.389 2.412-.384l2.406-3.322a1.728 1.728 0 012.199-.518l3.641 1.902c.846.442 1.89.115 2.331-.732l1.897-3.638a1.727 1.727 0 012.099-.832l3.879 1.352a1.728 1.728 0 002.2-1.065l1.347-3.875a1.727 1.727 0 011.956-1.129l4.034.772a1.727 1.727 0 002.021-1.373l.769-4.03a1.726 1.726 0 011.77-1.402l4.103.176a1.728 1.728 0 001.8-1.652l.173-4.101a1.728 1.728 0 011.547-1.645l4.086-.423a1.727 1.727 0 001.539-1.897l-.425-4.082a1.728 1.728 0 011.291-1.853l3.98-1.014a1.727 1.727 0 001.246-2.101l-1.014-3.977a1.728 1.728 0 011.007-2.021l3.789-1.583a1.73 1.73 0 00.929-2.261l-1.583-3.786a1.727 1.727 0 01.703-2.147l3.517-2.119a1.726 1.726 0 00.589-2.371l-2.116-3.517a1.729 1.729 0 01.382-2.226l3.172-2.608a1.728 1.728 0 00.237-2.432l-2.606-3.171a1.73 1.73 0 01.054-2.259l2.758-3.042c.642-.707.588-1.8-.119-2.441l-3.039-2.758a1.728 1.728 0 01-.275-2.243l2.285-3.412a1.728 1.728 0 00-.473-2.398l-3.409-2.286a1.728 1.728 0 01-.598-2.178l1.765-3.71a1.73 1.73 0 00-.817-2.303l-3.705-1.766a1.73 1.73 0 01-.91-2.068l1.207-3.927a1.729 1.729 0 00-1.144-2.16l.001-.001z" fill="#1E1E1E"/><path d="M124.259 50.023l4.126 3.714 4.807-2.775-2.257 5.07 4.124 3.715-5.52-.58-2.258 5.07-1.154-5.43-5.52-.58 4.807-2.775-1.155-5.43zm-90.332 52.154l4.125 3.714 4.807-2.775-2.257 5.07 4.125 3.714-5.52-.58-2.259 5.071-1.154-5.429-5.52-.58 4.807-2.776-1.154-5.429zm28.536 27.48l4.333 1.824-2.255 5.358a5.73 5.73 0 01-1.098-.011 14.696 14.696 0 01-1.248-.172 12.938 12.938 0 01-1.236-.286 9.127 9.127 0 01-1.028-.352 7.033 7.033 0 01-1.064-.565 5.706 5.706 0 01-1.01-.823 5.012 5.012 0 01-.813-1.101 4.556 4.556 0 01-.484-1.406c-.095-.521-.099-1.098-.014-1.731.086-.633.286-1.323.6-2.071.477-1.135 1.032-1.996 1.664-2.579.63-.584 1.303-.963 2.016-1.139a5.107 5.107 0 012.2-.049c.754.142 1.5.369 2.237.68a8.53 8.53 0 011.052.533c.352.208.671.409.958.602.287.193.608.424.965.695l-.769 1.827a12.094 12.094 0 00-.903-.715 22.15 22.15 0 00-.94-.622 7.66 7.66 0 00-1.099-.57 5.748 5.748 0 00-1.53-.427 2.906 2.906 0 00-1.383.149c-.435.16-.84.448-1.213.863-.373.415-.71.981-1.012 1.697-.271.645-.43 1.232-.478 1.76-.047.528-.007.997.123 1.407.129.41.34.761.633 1.054.293.291.64.522 1.039.69.42.177.776.306 1.067.386.292.08.535.132.731.154.216.03.403.031.56.001l.99-2.349-2.321-.977.73-1.735zm11.349 10.168c-.726-.104-1.365-.311-1.916-.62a4.388 4.388 0 01-1.351-1.144 4.149 4.149 0 01-.741-1.529 4.521 4.521 0 01-.083-1.771l1.048-7.322 2.31.332-1.086 7.585a3.886 3.886 0 00-.027.897c.026.29.114.552.266.787.151.235.373.436.663.6.29.166.684.284 1.18.355.494.072.905.063 1.232-.025.327-.087.594-.228.802-.423a1.88 1.88 0 00.471-.706c.107-.277.183-.569.227-.876l1.075-7.504 2.31.332-1.049 7.322a4.628 4.628 0 01-.568 1.677 4.036 4.036 0 01-1.132 1.259 4.39 4.39 0 01-1.61.72c-.61.142-1.285.16-2.021.054zm16.488-2.932l-4.389.505-.678 2.845-2.517.29 2.92-12.059 2.898-.333 5.59 11.08-2.517.289-1.308-2.617zm-1.002-1.998c-.263-.529-.493-.988-.689-1.379l-.62-1.237c-.218-.433-.408-.809-.566-1.126l-.504 2.037c-.06.253-.12.503-.181.75a84.75 84.75 0 00-.16.656c-.045.19-.093.399-.145.629l2.864-.33zm16.503.477l-2.468.871-2.468-3.282a2.162 2.162 0 00-.358-.315 2.187 2.187 0 00-.386-.165.741.741 0 00-.476.027l-1.29.455 1.583 4.478-2.184.771-3.88-10.982L97 126.126c.566-.2 1.12-.341 1.661-.427a3.994 3.994 0 011.513.032c.468.106.885.326 1.252.663.365.335.663.828.893 1.478.119.335.17.641.156.917a2.345 2.345 0 01-.503 1.353c-.14.172-.274.317-.404.434-.13.116-.284.235-.465.357a1.23 1.23 0 01.724-.052c.22.058.412.14.573.248.163.109.327.267.496.479l2.904 3.765v-.001zm-7.193-4.548a5.04 5.04 0 00.711-.312c.223-.12.408-.265.555-.434a1.3 1.3 0 00.289-.606c.046-.235.017-.504-.09-.807-.108-.304-.245-.535-.414-.694a1.206 1.206 0 00-.577-.309 1.768 1.768 0 00-.706.002 5.606 5.606 0 00-.805.222l-.896.316 1.038 2.938.896-.317-.001.001zm15.168-3.303l-3.711 2.393.651 2.853-2.129 1.372-2.716-12.108 2.45-1.581 9.916 7.466-2.129 1.372-2.331-1.768-.001.001zm-1.782-1.349a534.465 534.465 0 00-3.338-2.527l.45 2.05c.059.254.115.505.17.753.054.25.103.468.146.659.044.189.093.4.148.629l2.423-1.564h.001zm15.779-7.986l-2.082 2.251-9.33-2.8 6.421 5.942-1.505 1.626-8.55-7.912 2.083-2.25 9.318 2.788-6.409-5.931 1.506-1.626 8.548 7.912zm-3.358-16.732l1.575.905-1.66 2.891 8.525 4.898-1.154 2.008-8.525-4.897-1.669 2.904-1.574-.905 4.482-7.804zm10.518-.489l1.435-4.3 1.754.586-2.173 6.513-11.048-3.69 2.173-6.513 1.633.95-1.313 3.936 2.703.903 1.313-3.937 1.754.587-1.313 3.936 3.082 1.029zm2.63-10.812l.55-4.5 1.836.225-.834 6.816-11.56-1.419.833-6.816 1.789.606-.503 4.12 2.827.347.504-4.12 1.836.226-.503 4.119 3.224.395.001.001zM25.467 71.871l11.45.76-.145 2.179-9.255-.615 9.044 3.809-.137 2.064-9.465 2.58 9.254.614-.144 2.18-11.45-.76.23-3.474 8.794-2.361-8.406-3.503.23-3.473zm3.087-10.43a7.447 7.447 0 01.901-1.64 4.79 4.79 0 011.508-1.365c.611-.357 1.343-.568 2.195-.634.851-.066 1.834.115 2.948.543 1.124.431 1.978.955 2.562 1.572.584.617.979 1.261 1.184 1.932.206.671.268 1.342.187 2.014a7.66 7.66 0 01-.434 1.82 7.655 7.655 0 01-.894 1.644 4.87 4.87 0 01-1.487 1.38c-.604.367-1.328.584-2.175.652-.847.068-1.832-.114-2.956-.545-1.114-.428-1.965-.951-2.554-1.57-.59-.619-.99-1.268-1.205-1.948a4.869 4.869 0 01-.207-2.031 7.45 7.45 0 01.427-1.824zm9.38 3.6c.164-.429.24-.857.228-1.283a2.673 2.673 0 00-.333-1.219c-.21-.385-.529-.745-.957-1.08-.429-.333-.975-.628-1.64-.883-.643-.248-1.236-.39-1.779-.428-.542-.038-1.022.015-1.44.16-.42.144-.778.37-1.078.676-.299.307-.53.675-.695 1.104-.164.43-.238.858-.22 1.287.017.43.134.84.352 1.235.219.394.539.758.962 1.09.424.332.963.624 1.617.875.664.255 1.265.4 1.802.437.537.036 1.013-.022 1.428-.173.416-.151.77-.381 1.065-.69a3.31 3.31 0 00.688-1.108zm9.989-13.821l-1.768 2.449-9.455-1.63 6.986 5.05-1.278 1.77-9.302-6.724 1.768-2.448 9.442 1.62-6.973-5.04 1.278-1.77 9.302 6.724zm2.283-4.58l3.352-2.948 1.204 1.369-5.078 4.464-7.576-8.623 5.078-4.465.92 1.619-3.07 2.698 1.854 2.11 3.069-2.698 1.203 1.369-3.069 2.698 2.113 2.406zm6.722-8.194l-6.799-3.962 2.066-1.148 4.761 2.727.187-5.477 2.08-1.156-.344 7.932 2.152 3.877-1.95 1.084-2.153-3.877zm20.937-5.921c.116.624.081 1.176-.103 1.655-.184.48-.466.891-.848 1.234a4.739 4.739 0 01-1.379.848 8.35 8.35 0 01-1.677.493l-3.276.605-2.086-11.288 3.502-.647a7.362 7.362 0 011.587-.126c.51.017.97.116 1.38.296.412.18.766.454 1.062.823.296.368.504.847.624 1.438l.003.016c.098.527.056.964-.125 1.309-.18.345-.397.619-.649.821-.3.245-.649.432-1.048.56.494-.035.947.01 1.36.134a2.88 2.88 0 011.02.554c.327.269.543.683.646 1.242l.006.033h.001zm-3.806 2.34a2.69 2.69 0 00.67-.216c.209-.1.388-.23.536-.392.149-.16.252-.352.311-.575.06-.222.062-.479.008-.77a1.728 1.728 0 00-.292-.722 1.37 1.37 0 00-.514-.431 1.806 1.806 0 00-.673-.168c-.247-.015-.5 0-.758.048l-1.42.262.6 3.246 1.532-.283zm-2.443-4.643l1.436-.265a2.45 2.45 0 00.568-.18c.184-.084.341-.197.471-.338.13-.14.224-.308.283-.503.058-.195.065-.416.019-.663a1.44 1.44 0 00-.258-.63 1.203 1.203 0 00-.442-.36 1.523 1.523 0 00-.584-.134 2.934 2.934 0 00-.667.048l-1.339.248.513 2.777zm15.505 3.146l-4.343-.206-1.112 2.66-2.491-.118 4.753-11.267 2.868.136 3.672 11.667-2.492-.118-.855-2.754zm-.657-2.103c-.17-.556-.32-1.04-.448-1.452l-.407-1.301-.371-1.185-.813 1.901-.296.701a74.435 74.435 0 00-.5 1.202l2.835.134zm13.201-4.437c.4.114.767.249 1.104.406a10.336 10.336 0 011.677.978l-.486 1.722a9.205 9.205 0 00-1.212-.752 5.804 5.804 0 00-1.309-.498 4.352 4.352 0 00-1.304-.12 2.72 2.72 0 00-1.214.373c-.381.222-.728.556-1.041 1.003-.314.446-.572 1.027-.773 1.743-.205.727-.292 1.363-.257 1.907.034.544.154 1.014.362 1.408.206.394.486.715.837.962.35.247.744.435 1.18.564a5.89 5.89 0 001.384.229 8.13 8.13 0 001.438-.054l-.49 1.738c-.296.042-.614.06-.953.055a7.509 7.509 0 01-2.154-.284 7.041 7.041 0 01-1.108-.424 5.65 5.65 0 01-1.087-.682 4.94 4.94 0 01-.926-.979 4.494 4.494 0 01-.643-1.316 5.527 5.527 0 01-.224-1.685c.006-.624.118-1.32.334-2.09.215-.758.482-1.405.803-1.94a5.484 5.484 0 011.072-1.318 4.513 4.513 0 011.235-.786 5.18 5.18 0 011.304-.356 5.397 5.397 0 011.285-.022c.419.045.807.117 1.166.218zm9.351 17.048l-2.254-1.214-.649-5.83-.997-.537-2.285 4.252-1.922-1.034 5.433-10.11 1.923 1.034-2.286 4.253 1.012.544 5.06-2.759 2.283 1.23-6.212 3.201.894 6.97z" fill="#F4F4F4"/><path fill-rule="evenodd" clip-rule="evenodd" d="M62.88 48.013c-18.803 10.856-25.241 34.91-14.377 53.726 10.863 18.816 34.913 25.268 53.715 14.412 18.803-10.855 25.241-34.91 14.378-53.726-10.864-18.816-34.914-25.268-53.717-14.412zM46.282 103.02c-11.57-20.04-4.715-45.662 15.315-57.226s45.646-4.69 57.217 15.35c11.57 20.04 4.715 45.663-15.315 57.226-20.03 11.565-45.646 4.691-57.217-15.35z" fill="#C80000"/><path d="M50.671 26.87a64.157 64.157 0 0111.77-5.3 63.363 63.363 0 0124.521-3.082c4.063.289 8.12.97 12.061 2.028a64.24 64.24 0 0111.458 4.282 63.772 63.772 0 0110.502 6.441 63.5 63.5 0 019.196 8.506 64.287 64.287 0 017.547 10.483 64.314 64.314 0 015.305 11.777 63.393 63.393 0 013.095 24.532 64.193 64.193 0 01-2.02 12.065 63.76 63.76 0 01-10.707 21.96 63.31 63.31 0 01-8.497 9.193 64.18 64.18 0 01-10.475 7.543 64.14 64.14 0 01-11.77 5.3 63.462 63.462 0 01-12.21 2.762c-4.068.503-8.21.612-12.311.32a64.253 64.253 0 01-12.06-2.027 64.317 64.317 0 01-11.459-4.283 63.465 63.465 0 01-19.698-14.946 64.273 64.273 0 01-7.547-10.483 64.296 64.296 0 01-5.305-11.778 63.438 63.438 0 01-3.095-24.532 64.217 64.217 0 012.02-12.064 64.173 64.173 0 014.275-11.459 63.299 63.299 0 0114.93-19.695A64.154 64.154 0 0150.67 26.87zM49.42 24.7C17.747 42.986 6.904 83.501 25.202 115.194c18.298 31.692 58.806 42.559 90.477 24.274 31.673-18.286 42.515-58.8 24.217-90.493C121.599 17.283 81.09 6.415 49.419 24.7z" fill="#C80000"/><path d="M68.54 102.304l-3.547 2.048-9.038-15.654-3.596 2.075-1.554-2.691 6.75-4.804 10.986 19.026zM79.203 86.27c1.454 2.516 2.02 4.736 1.699 6.658-.322 1.922-1.398 3.412-3.228 4.468-1.83 1.057-3.684 1.26-5.513.579-1.829-.68-3.47-2.28-4.924-4.797l-2.422-4.195c-1.448-2.509-2.014-4.729-1.698-6.66.316-1.93 1.393-3.426 3.231-4.488 1.839-1.061 3.665-1.241 5.503-.555 1.839.687 3.482 2.285 4.93 4.794l2.422 4.195zm-6.186-2.55c-.869-1.506-1.717-2.488-2.542-2.946-.826-.457-1.635-.457-2.43.001-.793.459-1.207 1.162-1.219 2.097-.01.934.421 2.16 1.295 3.673l2.857 4.948c.884 1.533 1.736 2.526 2.555 2.981.82.456 1.634.45 2.444-.018s1.196-1.154 1.207-2.09c.01-.934-.426-2.168-1.31-3.7l-2.857-4.947zm20.46-5.69c1.454 2.519 2.02 4.739 1.699 6.66-.321 1.922-1.398 3.411-3.227 4.468-1.83 1.056-3.685 1.259-5.514.578-1.829-.68-3.47-2.279-4.924-4.797l-2.422-4.194c-1.448-2.51-2.014-4.729-1.698-6.66.316-1.93 1.393-3.426 3.231-4.488 1.839-1.061 3.665-1.241 5.503-.555 1.84.687 3.482 2.285 4.93 4.794l2.422 4.195zm-6.186-2.549c-.87-1.505-1.717-2.487-2.542-2.945-.826-.457-1.636-.457-2.43.001-.793.459-1.207 1.162-1.219 2.097-.01.934.42 2.16 1.295 3.674l2.856 4.947c.885 1.532 1.737 2.526 2.556 2.982.82.455 1.633.449 2.443-.018.81-.468 1.197-1.155 1.208-2.09.01-.935-.427-2.168-1.31-3.7L87.29 75.48h.001zm3.899-6.744c-.649-1.124-.851-2.256-.607-3.396.243-1.14.969-2.057 2.175-2.754 1.208-.697 2.386-.88 3.488-.524 1.102.357 1.98 1.101 2.634 2.234l.581 1.006c.649 1.124.851 2.25.607 3.378-.245 1.13-.97 2.041-2.178 2.738-1.207.697-2.376.879-3.484.531-1.108-.347-1.986-1.084-2.635-2.207l-.58-1.006zm2.938-.355c.292.505.666.855 1.125 1.05.457.194.929.151 1.415-.13.486-.28.733-.652.79-1.143.056-.492-.061-.99-.353-1.496l-.581-1.006c-.292-.505-.67-.86-1.132-1.062-.463-.203-.934-.167-1.411.109-.478.275-.742.663-.794 1.164-.052.5.069 1.003.36 1.508l.582 1.006h-.001zm9.559 11.73l-2.291.016.051-19.857 2.291-.016-.051 19.857zm2.138-5.555c-.644-1.115-.842-2.243-.595-3.386.248-1.142.975-2.061 2.182-2.758 1.207-.697 2.375-.875 3.481-.52 1.106.354 1.985 1.093 2.634 2.217l.581 1.006c.653 1.133.858 2.263.613 3.392-.244 1.129-.97 2.041-2.177 2.738-1.206.696-2.379.877-3.494.527-1.115-.35-1.996-1.086-2.644-2.21l-.581-1.006zm2.937-.355c.286.497.672.84 1.155 1.032a1.54 1.54 0 001.405-.105c.526-.304.808-.684.847-1.142.038-.458-.101-.961-.418-1.51l-.581-1.006c-.287-.496-.662-.846-1.125-1.05-.463-.203-.933-.167-1.411.11-.477.275-.754.67-.806 1.17-.051.5.066.999.353 1.495l.581 1.006z" fill="#C80000"/></g></g><defs><clipPath id="clip0_307_51"><path fill="#fff" transform="translate(.5)" d="M0 0h164v164H0z"/></clipPath></defs></svg>