<svg width="164" height="164" fill="none" xmlns="http://www.w3.org/2000/svg"><path d="M132.395 90.234l-33.997 34.039-9.548-9.56a23.932 23.932 0 0017.841-7.045l21.566-21.577 4.138 4.143z" fill="#C80000"/><path d="M97.777 45.023a1.478 1.478 0 01-1.445-1.76 1.48 1.48 0 01.396-.756l5.824-5.831a1.476 1.476 0 012.499.423c.075.19.109.393.1.597a1.48 1.48 0 01-.515 1.067l-5.809 5.89a1.477 1.477 0 01-1.05.37zm6.666 16.277a1.474 1.474 0 01-1.373-.912 1.485 1.485 0 01.324-1.618l5.78-5.787a1.473 1.473 0 011.048-.435 1.473 1.473 0 011.05.435 1.49 1.49 0 01.322 1.62c-.075.18-.184.344-.322.482l-5.823 5.83a1.48 1.48 0 01-1.006.385zm6.209 16.787a1.48 1.48 0 01-1.034-2.53l5.809-5.832a1.473 1.473 0 011.618-.324 1.484 1.484 0 01.481 2.411l-5.839 5.772a1.475 1.475 0 01-1.035.503z" fill="#1E1E1E"/><path d="M127.665 82.493l-23.029 23.043a21.085 21.085 0 01-17.634 6.082l-4.154-.547a11.822 11.822 0 00-9.874 3.359l-6.208 6.216c-.133-.148-34.337-34.467-34.455-34.467l.103-.105a11.044 11.044 0 0011.971 2.166 11.062 11.062 0 004.877-4.07 11.08 11.08 0 001.836-6.087 4.152 4.152 0 000-.43c.138.016.276.016.414 0a11.043 11.043 0 007.964-3.397 11.07 11.07 0 003.078-8.101 1.9 1.9 0 00.413 0 11.032 11.032 0 007.975-3.399 11.058 11.058 0 003.067-8.115c.138.015.276.015.414 0 2.162 0 4.277-.636 6.081-1.829a11.066 11.066 0 001.9-16.862l11.989-11.93a8.098 8.098 0 019.37-1.507 8.104 8.104 0 012.618 2.1 8.37 8.37 0 01-.784 11.128l-1.995 2.028a8.13 8.13 0 019.378-1.503 8.132 8.132 0 012.625 2.095 8.366 8.366 0 01-.799 11.1l-4.537 4.543a8.076 8.076 0 0111.987.592A8.347 8.347 0 01124 60.319a8.347 8.347 0 01-2.528 5.421l-4.996 5.003a8.109 8.109 0 0111.973.592 8.372 8.372 0 011.747 5.73 8.374 8.374 0 01-2.531 5.428zm-63.068 40.146L30.3 88.299a2.702 2.702 0 00-3.825 0l-12.603 12.618a2.71 2.71 0 000 3.83l34.298 34.34a2.703 2.703 0 003.825 0l12.603-12.618a2.71 2.71 0 000-3.83z" fill="#1E1E1E"/><path d="M151.271 104.589L138.736 91.98a2.67 2.67 0 00-1.914-.801 2.691 2.691 0 00-1.913.801l-34.293 34.334a2.689 2.689 0 000 3.834l12.535 12.549a2.684 2.684 0 003.828 0l34.292-34.334a2.695 2.695 0 000-3.774zm-35.49 27.749a4.78 4.78 0 01-4.424-2.961 4.792 4.792 0 011.038-5.225 4.797 4.797 0 012.452-1.313 4.792 4.792 0 015.724 4.703 4.8 4.8 0 01-1.404 3.392 4.787 4.787 0 01-3.386 1.404zM80.173 49.462a8.101 8.101 0 01-5.728 2.376 8.09 8.09 0 01-5.728-2.376l-15.062-15.14a8.111 8.111 0 01-2.35-5.743 8.115 8.115 0 012.394-5.726 8.095 8.095 0 0111.456.045c-.065.082-.12.171-.163.266a7.245 7.245 0 001.478 8.406l4.716 4.75a10.771 10.771 0 0010.05 2.857 8.132 8.132 0 01-1.063 10.285zM68.717 60.874a8.073 8.073 0 01-5.727 2.387 8.063 8.063 0 01-5.728-2.387c-10.347-10.36-8.204-8.184-12.816-12.831a8.116 8.116 0 01.338-11.275 8.096 8.096 0 0111.266-.032l12.667 12.728a8.145 8.145 0 010 11.41z" fill="#C80000"/><path d="M57.262 72.342a8.11 8.11 0 01-11.47 0L35.444 61.91a8.116 8.116 0 01.059-11.47 8.095 8.095 0 0111.455.06l10.347 10.36a8.11 8.11 0 012.358 5.75 8.118 8.118 0 01-2.402 5.733z" fill="#C80000"/><path d="M45.792 83.808a8.1 8.1 0 01-5.728 2.376 8.094 8.094 0 01-5.728-2.376l-4.434-4.44a8.121 8.121 0 01-.008-11.477 8.1 8.1 0 0111.463-.007l4.435 4.44a8.08 8.08 0 012.392 5.742 8.088 8.088 0 01-2.392 5.742zM90.077 24.2l-12.24 12.24a7.816 7.816 0 01-4.626-2.22l-4.7-4.736a4.442 4.442 0 013.089-7.4h14.781a4.046 4.046 0 013.696 2.116z" fill="#C80000"/></svg>