<svg width="164" height="164" fill="none" xmlns="http://www.w3.org/2000/svg"><path fill-rule="evenodd" clip-rule="evenodd" d="M136.399 111.473l7.52-14.645c2.823-5.15 2.282-12.613-1.979-16.626-17.017-16.028-36.342-26.92-57-32.062-5.66-1.41-14.068 2.216-16.88 7.346l-7.616 13.89c-14.966 27.297-4.958 60.07 7.914 68.222 14.809 9.378 52.373 2.454 68.041-26.125zM88.49 86.074a20.308 20.308 0 00-15.106-6.918 1.97 1.97 0 01-1.833-2.648c2.275-6.201 9.373-9.097 15.134-6.415 5.76 2.68 8.166 9.956 5.007 15.64-.655 1.178-2.295 1.376-3.202.341zm.621-4.917c.356-3.038-1.26-6.176-4.088-7.493-2.792-1.3-6.197-.547-8.32 1.8 4.647.666 8.93 2.683 12.408 5.693zm17.225 13.755c6.032.703 11.109 4 14.272 8.506.79 1.127 2.442 1.106 3.221.005 3.753-5.31 2.145-12.801-3.292-16.087-5.439-3.288-12.807-1.174-15.738 4.746a1.97 1.97 0 001.537 2.83zm12.163-4.206c2.671 1.614 3.938 4.909 3.257 7.89-3.134-3.367-7.175-5.834-11.723-6.998 2.364-2.103 5.83-2.484 8.466-.892zm-33.3 24.362c6.311 2.675 11.953 2.623 14.755 2.355 1.454-.139 2.51 1.346 1.917 2.672-3.43 7.642-13.323 11.044-22.01 7.298-8.575-3.698-12.983-13.058-9.827-20.867.546-1.352 2.35-1.61 3.254-.468 3.09 3.902 7.207 7.018 11.91 9.01zm-12.35-3.797c-.22 5.025 3.15 10.315 8.518 12.629 5.44 2.346 11.655 1.124 15.15-2.563-8.851-.218-17.405-3.807-23.669-10.066z" fill="#C80000"/><path d="M43.331 61.64c-3.117-.12-5.822-2.388-6.67-5.327 4.372 1.429 9.103 1.632 13.646.448-1.05 2.985-3.898 4.997-6.976 4.88z" fill="#1E1E1E"/><path fill-rule="evenodd" clip-rule="evenodd" d="M109.744 42.844v12.25c-8.491-4.438-17.323-7.247-26.414-9.51-5.66-1.41-14.068 2.216-16.881 7.346l-7.615 13.89c-3.393 6.187-5.737 12.537-7.114 18.786a29.392 29.392 0 01-5.365-2.125c-1.295-.668-2.832.311-2.773 1.768.195 4.744 2.782 8.947 6.676 11.68-.236 6.378.554 12.467 2.273 17.956l-2.99-1.708c-22.505-12.132-32.458-32.72-32.458-54.525V42.81c0-7.578 5.106-14.215 12.415-16.138 21.188-5.584 44.488-6.024 67.779.016 7.341 1.907 12.467 8.55 12.467 16.155zm-57.806 9.228a20.31 20.31 0 01-16.607-.533c-1.236-.604-2.671.214-2.82 1.554-.713 6.463 4.32 12.24 10.67 12.483 6.35.243 11.773-5.173 11.472-11.772a1.97 1.97 0 00-2.715-1.732z" fill="#1E1E1E"/><path d="M51.007 89.357a63.967 63.967 0 00-.391 2.85c-1.09-1.113-1.953-2.398-2.513-3.795.956.36 1.925.675 2.904.945z" fill="#1E1E1E"/></svg>