<svg width="39" height="27" fill="none" xmlns="http://www.w3.org/2000/svg"><g clip-path="url(#clip0_249_392)"><path d="M0 .5h38.606v26H0V.5z" fill="#fff"/><path d="M0 .5h38.606v2H0v-2zm0 3.999h38.606v2H0v-2zm0 3.999h38.606v2H0v-2zm0 3.998h38.606v2H0v-2zm0 4.007h38.606v2H0v-2zm0 3.999h38.606v2H0v-2zM0 24.5h38.606v2H0v-2z" fill="#D80027"/><path d="M0 .5h19.303v13.996H0V.5z" fill="#2E52B2"/><path d="M3.597 11.06l-.3-.973-.332.973h-.993l.805.585-.301.973.82-.6.798.6-.309-.973.82-.585H3.598zm4.237 0l-.308-.973-.317.973h-.993l.805.585-.3.973.805-.6.812.6-.3-.973.805-.585H7.834zm4.252 0l-.324-.973-.3.973h-1.017l.828.585-.316.973.805-.6.828.6-.316-.973.805-.585h-.993zm4.23 0l-.302-.973-.316.973h-1l.812.585-.3.973.804-.6.813.6-.324-.973.828-.585h-1.016zm-8.79-4.835l-.317.973h-.993l.805.6-.3.958.805-.593.812.593-.3-.958.805-.6H7.834l-.308-.973zm-4.23 0l-.33.973h-.994l.805.6-.301.958.82-.593.798.593-.309-.958.82-.6H3.598l-.3-.973zm8.466 0l-.3.973h-1.017l.828.6-.316.958.805-.593.828.593-.316-.958.805-.6h-.993l-.324-.973zm4.252 0l-.316.973h-1l.812.6-.3.958.804-.593.813.593-.324-.958.828-.6h-1.016l-.3-.973zM3.296 2.378l-.33.958h-.994l.805.6-.301.966.82-.6.798.6-.309-.966.82-.6H3.598l-.3-.958zm4.23 0l-.317.958h-.993l.805.6-.3.966.805-.6.812.6-.3-.966.805-.6H7.834l-.308-.958zm4.236 0l-.3.958h-1.017l.828.6-.316.966.805-.6.828.6-.316-.966.805-.6h-.993l-.324-.958zm4.252 0l-.316.958h-1l.812.6-.3.966.804-.6.813.6-.324-.966.828-.6h-1.016l-.3-.958z" fill="#fff"/></g><defs><clipPath id="clip0_249_392"><rect y=".5" width="38.606" height="26" rx="4" fill="#fff"/></clipPath></defs></svg>