<svg width="25" height="24" fill="none" xmlns="http://www.w3.org/2000/svg"><path fill-rule="evenodd" clip-rule="evenodd" d="M20.83 2c.922 0 1.67.748 1.67 1.67v16.66A1.67 1.67 0 0120.83 22H4.17a1.67 1.67 0 01-1.67-1.67V3.67C2.5 2.749 3.248 2 4.17 2h16.66zm-4.811 7.5c-1.42 0-2.39.627-2.823 1.356l-.071.13V9.625h-2.708v9.583h2.916v-4.642c0-1.556.573-2.545 1.95-2.545.95 0 1.349.84 1.381 2.337l.003.208v4.642h2.916v-5.293c0-2.857-.683-4.415-3.564-4.415zm-7.686 0H5.417v9.583h2.916V9.5zm-1.458-5a1.875 1.875 0 100 3.75 1.875 1.875 0 000-3.75z" fill="#fff"/></svg>