<svg width="220" height="136" viewBox="0 0 220 136" fill="none" xmlns="http://www.w3.org/2000/svg">
<rect width="308.035" height="36" transform="translate(17.7075 -44.6455) rotate(28.8879)" fill="#C80000"/>
<path d="M91.8151 23.6544L91.7602 18.6536L90.8356 18.1435L88.7331 21.9539L86.7719 20.8718L92.1671 11.0935L95.8375 13.1186C96.594 13.536 97.1636 14.027 97.5466 14.5915C97.9346 15.1468 98.1331 15.7253 98.1422 16.3273C98.1656 16.925 98.0228 17.504 97.7136 18.0644C97.3581 18.7088 96.8492 19.1895 96.1871 19.5063C95.5301 19.8139 94.7786 19.8622 93.9325 19.6512L94.0846 24.9066L91.8151 23.6544ZM91.6472 16.6725L93.2862 17.5769C93.8186 17.8706 94.2851 17.9635 94.6857 17.8556C95.0915 17.7384 95.4206 17.451 95.6731 16.9934C95.9205 16.5451 95.9804 16.1274 95.8529 15.7403C95.7305 15.3438 95.4031 14.9987 94.8708 14.705L93.2317 13.8006L91.6472 16.6725ZM105.195 25.7556C105.04 26.0358 104.883 26.2777 104.721 26.4812L99.0478 23.3507C98.7853 23.9369 98.7393 24.484 98.9096 24.9922C99.08 25.5004 99.4173 25.8937 99.9217 26.1719C100.65 26.5739 101.341 26.547 101.995 26.0913L104.11 27.2585C103.474 27.8819 102.704 28.2613 101.801 28.3965C100.903 28.5224 99.9916 28.3303 99.067 27.8202C98.3199 27.4079 97.7376 26.8735 97.3203 26.2168C96.9174 25.5559 96.7153 24.8292 96.7141 24.0367C96.7221 23.2492 96.9452 22.4586 97.3832 21.6648C97.8263 20.8616 98.3788 20.2466 99.0407 19.8199C99.7025 19.3932 100.418 19.1787 101.187 19.1765C101.955 19.1743 102.723 19.3844 103.488 19.807C104.226 20.2141 104.797 20.7361 105.201 21.3732C105.614 22.0153 105.817 22.7182 105.81 23.4818C105.817 24.2412 105.612 24.9991 105.195 25.7556ZM103.473 24.0745C103.742 23.565 103.781 23.0629 103.591 22.5682C103.406 22.0642 103.057 21.6705 102.543 21.3871C102.058 21.1191 101.564 21.0418 101.063 21.1552C100.577 21.2644 100.152 21.5598 99.7884 22.0416L103.473 24.0745ZM106.029 26.4353C106.473 25.6322 107.022 25.0219 107.679 24.6045C108.341 24.1778 109.052 23.9608 109.811 23.9534C110.576 23.9366 111.331 24.1344 112.079 24.5466C113.04 25.0774 113.7 25.7582 114.058 26.5891C114.43 27.4158 114.484 28.3227 114.22 29.3098L112.105 28.1427C112.178 27.7446 112.131 27.3775 111.963 27.0412C111.81 26.7008 111.537 26.4224 111.145 26.206C110.584 25.8968 110.027 25.8575 109.474 26.0881C108.925 26.3093 108.445 26.7935 108.033 27.5407C107.626 28.2785 107.472 28.943 107.572 29.5343C107.678 30.1163 108.01 30.5618 108.571 30.871C109.365 31.309 110.079 31.2401 110.713 30.6643L112.829 31.8315C112.15 32.5535 111.357 32.9868 110.448 33.1314C109.54 33.276 108.61 33.0854 107.657 32.5598C106.91 32.1476 106.337 31.6183 105.938 30.9719C105.545 30.3162 105.35 29.5993 105.353 28.8212C105.361 28.0338 105.586 27.2385 106.029 26.4353ZM116.197 37.2715C115.449 36.8592 114.867 36.3248 114.45 35.6681C114.038 35.0021 113.826 34.2702 113.816 33.4725C113.814 32.6799 114.033 31.8867 114.471 31.0929C114.909 30.299 115.468 29.6939 116.149 29.2775C116.838 28.8663 117.577 28.6647 118.364 28.6727C119.157 28.6715 119.927 28.877 120.674 29.2892C121.421 29.7014 122.005 30.2431 122.427 30.9143C122.854 31.5761 123.072 32.3059 123.083 33.1036C123.103 33.9065 122.894 34.7049 122.456 35.4987C122.018 36.2926 121.449 36.8925 120.75 37.2986C120.06 37.7099 119.314 37.9136 118.512 37.9097C117.725 37.9016 116.953 37.6889 116.197 37.2715ZM117.14 35.5624C117.495 35.7582 117.872 35.8571 118.273 35.859C118.689 35.8568 119.085 35.7344 119.463 35.4919C119.84 35.2494 120.165 34.8806 120.439 34.3857C120.846 33.6479 120.961 32.9746 120.786 32.3659C120.624 31.7531 120.263 31.292 119.703 30.9828C119.143 30.6737 118.56 30.6142 117.956 30.8046C117.366 30.9907 116.867 31.4527 116.46 32.1905C116.053 32.9283 115.921 33.5985 116.063 34.201C116.221 34.7994 116.579 35.2532 117.14 35.5624ZM135.736 37.6179C136.688 38.1435 137.292 38.8602 137.546 39.7681C137.815 40.6718 137.661 41.6466 137.084 42.6926L134.572 47.2456L132.611 46.1634L134.976 41.8766C135.311 41.2696 135.412 40.7223 135.279 40.2347C135.151 39.7377 134.821 39.3424 134.288 39.0487C133.756 38.755 133.241 38.6839 132.743 38.8356C132.26 38.9831 131.85 39.3604 131.516 39.9674L129.15 44.2542L127.189 43.1721L129.554 38.8853C129.889 38.2782 129.99 37.7309 129.857 37.2433C129.729 36.7464 129.399 36.3511 128.867 36.0574C128.325 35.7585 127.805 35.6849 127.308 35.8366C126.824 35.984 126.415 36.3613 126.08 36.9684L123.715 41.2552L121.753 40.173L126.036 32.412L127.997 33.4941L127.479 34.4327C127.912 34.245 128.375 34.1659 128.871 34.1956C129.375 34.2304 129.866 34.3792 130.342 34.642C130.949 34.9769 131.419 35.4065 131.751 35.9309C132.088 36.4458 132.256 37.0136 132.255 37.6342C132.754 37.325 133.317 37.1664 133.943 37.1584C134.578 37.1555 135.175 37.3087 135.736 37.6179ZM150.415 45.7173C151.368 46.2429 151.971 46.9596 152.226 47.8675C152.495 48.7712 152.34 49.746 151.763 50.792L149.251 55.345L147.29 54.2628L149.655 49.9761C149.99 49.369 150.091 48.8217 149.958 48.3341C149.83 47.8372 149.5 47.4418 148.968 47.1481C148.435 46.8544 147.92 46.7834 147.422 46.935C146.939 47.0825 146.53 47.4598 146.195 48.0669L143.83 52.3536L141.868 51.2715L144.234 46.9847C144.569 46.3777 144.67 45.8303 144.537 45.3428C144.409 44.8458 144.079 44.4505 143.546 44.1568C143.005 43.8579 142.485 43.7843 141.987 43.936C141.504 44.0835 141.094 44.4607 140.759 45.0678L138.394 49.3546L136.433 48.2724L140.715 40.5114L142.676 41.5936L142.158 42.5322C142.591 42.3444 143.055 42.2654 143.55 42.295C144.055 42.3298 144.545 42.4786 145.022 42.7414C145.629 43.0763 146.098 43.506 146.43 44.0303C146.767 44.5452 146.935 45.113 146.934 45.7336C147.434 45.4245 147.996 45.2659 148.622 45.2578C149.257 45.2549 149.855 45.4081 150.415 45.7173ZM160.561 56.304C160.406 56.5841 160.248 56.826 160.087 57.0295L154.414 53.8991C154.151 54.4852 154.105 55.0324 154.276 55.5406C154.446 56.0488 154.783 56.442 155.288 56.7203C156.016 57.1222 156.707 57.0953 157.36 56.6396L159.476 57.8068C158.839 58.4303 158.07 58.8096 157.167 58.9449C156.269 59.0708 155.358 58.8786 154.433 58.3685C153.686 57.9562 153.104 57.4218 152.686 56.7651C152.283 56.1043 152.081 55.3775 152.08 54.585C152.088 53.7976 152.311 53.0069 152.749 52.2131C153.192 51.4099 153.745 50.795 154.407 50.3682C155.068 49.9415 155.784 49.7271 156.552 49.7248C157.321 49.7226 158.088 49.9328 158.854 50.3553C159.592 50.7624 160.163 51.2845 160.567 51.9215C160.98 52.5637 161.183 53.2665 161.176 54.0301C161.183 54.7895 160.978 55.5475 160.561 56.304ZM158.839 54.6228C159.108 54.1133 159.147 53.6113 158.957 53.1166C158.772 52.6126 158.423 52.2188 157.909 51.9354C157.424 51.6675 156.93 51.5902 156.429 51.7035C155.943 51.8127 155.518 52.1082 155.154 52.5899L158.839 54.6228ZM168.403 55.6423C169.328 56.1525 169.913 56.8589 170.158 57.7616C170.408 58.655 170.245 59.6247 169.667 60.6707L167.155 65.2236L165.194 64.1415L167.559 59.8547C167.899 59.2383 168.006 58.6817 167.878 58.1847C167.755 57.6785 167.428 57.2785 166.895 56.9848C166.353 56.6859 165.831 56.6169 165.328 56.778C164.84 56.9348 164.425 57.3214 164.085 57.9378L161.72 62.2246L159.759 61.1424L164.041 53.3814L166.002 54.4636L165.469 55.4302C165.916 55.2382 166.392 55.1597 166.896 55.1945C167.415 55.2251 167.918 55.3744 168.403 55.6423ZM170.673 62.0659C171.105 61.2814 171.643 60.6706 172.287 60.2336C172.939 59.8018 173.626 59.5718 174.348 59.5438C175.07 59.5158 175.763 59.6848 176.426 60.0506C176.93 60.3289 177.35 60.7064 177.684 61.183C178.023 61.6503 178.227 62.1408 178.297 62.6545L180.33 58.9701L182.319 60.0677L176.599 70.4344L174.61 69.3368L175.244 68.188C174.79 68.437 174.279 68.5571 173.711 68.5484C173.143 68.5397 172.57 68.3756 171.991 68.0561C171.337 67.6954 170.832 67.1975 170.476 66.5624C170.12 65.9273 169.95 65.2186 169.968 64.4363C170 63.6499 170.235 62.8598 170.673 62.0659ZM176.765 65.464C177.028 64.9877 177.159 64.5299 177.157 64.0906C177.161 63.642 177.053 63.2414 176.834 62.8887C176.619 62.5267 176.33 62.2453 175.966 62.0443C175.601 61.8433 175.216 61.7465 174.81 61.7539C174.404 61.7613 174.008 61.8837 173.621 62.121C173.249 62.3542 172.934 62.7043 172.676 63.1712C172.418 63.6382 172.285 64.1007 172.276 64.5586C172.281 65.0124 172.387 65.4177 172.592 65.7745C172.806 66.1365 173.091 66.4154 173.446 66.6112C173.81 66.8122 174.2 66.9116 174.615 66.9093C175.036 66.8977 175.432 66.7754 175.805 66.5422C176.182 66.2997 176.502 65.9403 176.765 65.464ZM187.963 71.4234C187.809 71.7036 187.651 71.9454 187.49 72.1489L181.816 69.0185C181.554 69.6046 181.508 70.1518 181.678 70.66C181.848 71.1682 182.186 71.5614 182.69 71.8397C183.419 72.2416 184.11 72.2147 184.763 71.759L186.878 72.9262C186.242 73.5497 185.472 73.929 184.569 74.0643C183.671 74.1902 182.76 73.9981 181.835 73.4879C181.088 73.0757 180.506 72.5412 180.089 71.8845C179.686 71.2237 179.484 70.497 179.482 69.7044C179.491 68.917 179.714 68.1264 180.152 67.3325C180.595 66.5293 181.147 65.9144 181.809 65.4877C182.471 65.061 183.186 64.8465 183.955 64.8443C184.724 64.842 185.491 65.0522 186.257 65.4747C186.995 65.8818 187.565 66.4039 187.969 67.0409C188.382 67.6831 188.585 68.386 188.578 69.1495C188.586 69.9089 188.381 70.6669 187.963 71.4234ZM186.241 69.7422C186.51 69.2328 186.55 68.7307 186.36 68.236C186.175 67.732 185.826 67.3383 185.312 67.0548C184.826 66.7869 184.333 66.7096 183.832 66.8229C183.345 66.9321 182.92 67.2276 182.557 67.7094L186.241 69.7422ZM188.813 72.0751C189.246 71.2906 189.784 70.6798 190.427 70.2428C191.08 69.8109 191.767 69.581 192.489 69.553C193.211 69.525 193.904 69.6939 194.567 70.0598C195.071 70.3381 195.49 70.7155 195.824 71.1922C196.163 71.6595 196.368 72.15 196.438 72.6636L198.471 68.9792L200.46 70.0768L194.74 80.4435L192.751 79.346L193.385 78.1972C192.93 78.4461 192.419 78.5663 191.852 78.5576C191.284 78.5488 190.711 78.3847 190.131 78.0653C189.478 77.7045 188.973 77.2066 188.617 76.5715C188.26 75.9365 188.091 75.2278 188.108 74.4455C188.14 73.6591 188.375 72.8689 188.813 72.0751ZM194.906 75.4732C195.169 74.9969 195.299 74.5391 195.298 74.0998C195.302 73.6512 195.194 73.2505 194.974 72.8979C194.76 72.5359 194.471 72.2544 194.106 72.0534C193.742 71.8525 193.357 71.7557 192.951 71.7631C192.545 71.7705 192.148 71.8929 191.762 72.1302C191.389 72.3634 191.074 72.7134 190.817 73.1804C190.559 73.6474 190.426 74.1098 190.417 74.5678C190.422 75.0216 190.527 75.4269 190.732 75.7837C190.947 76.1457 191.232 76.4246 191.587 76.6204C191.951 76.8214 192.341 76.9207 192.756 76.9185C193.177 76.9069 193.573 76.7845 193.945 76.5514C194.323 76.3089 194.643 75.9495 194.906 75.4732Z" fill="white"/>
</svg>
