<svg width="53" height="52" fill="none" xmlns="http://www.w3.org/2000/svg"><path d="M36.774 28.98v13.902c0 .546-.456.993-1.014.993h-2.03v4.965c0 .546-.456.993-1.014.993a1.007 1.007 0 01-1.014-.993v-4.965h-2.028a1.007 1.007 0 01-1.015-.993V28.979c0-.546.457-.993 1.015-.993h2.028v-4.965c0-.546.456-.993 1.014-.993s1.014.447 1.014.993v4.965h2.029c.558 0 1.014.447 1.014.993zm13.184-11.918v17.875c0 .547-.456.993-1.014.993h-2.028v4.966c0 .546-.457.993-1.014.993a1.007 1.007 0 01-1.014-.993V35.93h-2.029a1.007 1.007 0 01-1.014-.993V17.062c0-.546.456-.993 1.014-.993h2.029v-3.972c0-.546.456-.993 1.014-.993.557 0 1.014.447 1.014.993v3.972h2.028c.558 0 1.014.447 1.014.993zM10.405 34.938v7.944c0 .546-.456.993-1.014.993H7.363v4.965c0 .547-.457.993-1.015.993a1.007 1.007 0 01-1.014-.992v-4.966H3.306a1.007 1.007 0 01-1.014-.993v-7.944c0-.547.456-.993 1.014-.993h2.028v-4.966c0-.546.457-.993 1.014-.993.558 0 1.015.447 1.015.993v4.966H9.39c.558 0 1.014.446 1.014.993zM23.59 8.125v20.854c0 .546-.457.993-1.015.993h-2.028v4.965c0 .547-.456.993-1.014.993a1.007 1.007 0 01-1.014-.993v-4.965H16.49a1.007 1.007 0 01-1.014-.993V8.125c0-.546.456-.993 1.014-.993h2.029V3.16c0-.547.456-.994 1.014-.994s1.014.447 1.014.994v3.972h2.028c.558 0 1.015.447 1.015.993z" fill="#C80000"/></svg>