<svg width="53" height="52" fill="none" xmlns="http://www.w3.org/2000/svg"><path d="M15.3 10.545h15.873c.877 0 1.588-.625 1.588-1.396V3.563c0-.771-.711-1.397-1.588-1.397H15.3c-.877 0-1.588.626-1.588 1.397v5.586c0 .771.711 1.396 1.588 1.396zm3.175 11.105v6.584h3.174v-1.396c0-.771.711-1.397 1.588-1.397.876 0 1.587.626 1.587 1.397v1.396h3.175V21.65l-4.762-2.094-4.762 2.094z" fill="#C80000"/><path d="M38.868 42.85H33.63c-.876 0-1.587-.624-1.587-1.396v-4.608c0-.37.167-.726.465-.987l11.364-9.998V7.752c0-.77-.71-1.396-1.587-1.396h-6.35v2.793c0 2.31-2.136 4.19-4.762 4.19H15.3c-2.626 0-4.762-1.88-4.762-4.19V6.356h-6.35c-.876 0-1.587.625-1.587 1.396v40.685c0 .77.71 1.396 1.588 1.396h38.096c.876 0 1.587-.625 1.587-1.396v-9.41l-3.881 3.415a1.703 1.703 0 01-1.123.409zm-11.398 0h-8.466c-.877 0-1.588-.624-1.588-1.396 0-.77.711-1.396 1.588-1.396h8.466c.876 0 1.587.625 1.587 1.396 0 .772-.71 1.397-1.587 1.397zm0-5.585h-8.466c-.877 0-1.588-.626-1.588-1.397s.711-1.396 1.588-1.396h8.466c.876 0 1.587.625 1.587 1.396 0 .771-.71 1.397-1.587 1.397zm3.704-14.231v6.597c0 .77-.711 1.396-1.588 1.396H16.887c-.876 0-1.587-.625-1.587-1.396v-6.598c-.745.232-1.587-.053-1.949-.691-.392-.69-.074-1.529.71-1.874l8.466-3.724a1.783 1.783 0 011.42 0l8.465 3.724c.785.345 1.102 1.184.71 1.874-.36.632-1.197.926-1.948.692z" fill="#C80000"/><path d="M35.218 40.058h2.993l10.695-9.41-2.993-2.632-10.695 9.409v2.633z" fill="#C80000"/></svg>