<svg width="53" height="52" fill="none" xmlns="http://www.w3.org/2000/svg"><path d="M48.566 2.902c-.51-.082-.988.28-1.069.811-.859 5.731-2.007 8.777-4.356 9.201-4.24.764-9.62-6.808-14.578-5.448-1.858.51-2.491 1.962-3.002 3.13-.492 1.13-.92 2.107-2.328 2.597-3.823 1.33-8.67-2.959-12.574-1.315-1.824.768-2.84 2.538-3.025 5.267-1.63.42-2.84 1.952-2.84 3.772 0 1.808 1.195 3.332 2.809 3.765v5.589c0 .536.419.971.936.971.517 0 .936-.435.936-.971v-5.59c1.613-.432 2.807-1.956 2.807-3.764 0-1.794-1.177-3.309-2.772-3.755.22-2.797 1.43-3.306 1.852-3.483 3.002-1.265 7.955 2.925 12.465 1.357 2.184-.759 2.88-2.355 3.44-3.638.51-1.17.82-1.791 1.775-2.054 3.857-1.056 9.27 6.413 14.418 5.485 4.22-.76 5.23-6.436 5.888-10.817.078-.531-.27-1.028-.782-1.11zM10.41 20.917c0 1.071-.84 1.944-1.871 1.944-1.032 0-1.872-.873-1.872-1.944 0-1.068.837-1.944 1.872-1.944 1.032 0 1.872.873 1.872 1.944z" fill="#C80000"/><path d="M29.013 37.073c0-2.147-1.677-3.887-3.744-3.887h-4.914c-.517 0-.936.435-.936.972 0-.013.013.465-.042.971-.34 3.178-2.706 5.73-5.725 6.23-.61.1-1.155-.44-1.068-1.102a.977.977 0 01.794-.821c.381-.072.71-.154 1.13-.34 1.485-.626 2.745-2.16 2.992-4.048.05-.38.04-.054.047-4.254l.157.164a.914.914 0 001.324 0 1 1 0 000-1.375l-1.755-1.822c-.585-.605-1.598-.195-1.598.718v4.707H6.2c-2.068 0-3.744 1.74-3.744 3.887v9.597c0 2.146 1.676 3.887 3.744 3.887h19.304c1.938 0 3.51-1.632 3.51-3.645v-9.839z" fill="#C80000"/></svg>