<svg width="53" height="52" fill="none" xmlns="http://www.w3.org/2000/svg"><path d="M47.728 11.255c-1.81-4.088-7.021-7.432-13.084-5.485-2.7 1.029-5.091 2.854-6.913 5.277a25.976 25.976 0 00-3.348 6.777l8.857 4.37-7.52 7.817 3.105 4.072-2.12 1.992-4.86-6.272 6.4-6.703-7.346-3.582a30.625 30.625 0 013.106-8.174c.432-.796.91-1.56 1.431-2.29h.081c-1.497-1.515-3.296-2.625-5.252-3.24-6.036-1.96-11.234 1.353-13.043 5.44-2.539 5.723-1.485 12.158 3.132 19.129 3.619 5.454 8.79 10.983 16.297 17.403.237.204.53.315.83.315.301 0 .594-.111.83-.315 7.494-6.405 12.68-11.89 16.298-17.403 4.604-6.971 5.657-13.406 3.119-19.128z" fill="#C80000"/></svg>