<svg width="53" height="52" fill="none" xmlns="http://www.w3.org/2000/svg"><path d="M35.344 18.864a18.837 18.837 0 01-1.182 6.499c1.512.394 2.888 1.293 3.923 2.598.487.615.423 1.54-.144 2.069-.567.527-1.422.458-1.91-.157-.807-1.018-1.939-1.649-3.157-1.777a17.543 17.543 0 01-2.823 3.677h3.05c.747 0 1.353.656 1.353 1.466 0 .81-.606 1.467-1.354 1.467h-5.26c.585 2.138 2.414 3.702 4.574 3.702 1.39 0 2.71-.657 3.619-1.803.487-.614 1.342-.684 1.909-.156s.631 1.454.144 2.069c-1.424 1.794-3.491 2.823-5.672 2.823-3.521 0-6.48-2.65-7.27-6.207a15.134 15.134 0 01-6 1.28c1.344 6.597 6.783 11.547 13.27 11.547 7.493 0 13.59-6.604 13.59-14.722 0-7.027-4.57-12.92-10.659-14.375z" fill="#C80000"/><path d="M32.638 18.761c0-8.117-6.096-14.721-13.59-14.721-7.492 0-13.589 6.604-13.589 14.721 0 8.118 6.096 14.722 13.59 14.722 7.493 0 13.589-6.604 13.589-14.722zm-14.943 7.65v-.292h-1.366c-.747 0-1.353-.657-1.353-1.467s.606-1.466 1.353-1.466h2.72c.752 0 1.365-.664 1.365-1.48 0-.815-.613-1.478-1.366-1.478-2.245 0-4.072-1.98-4.072-4.412 0-1.92 1.136-3.555 2.719-4.161v-.543c0-.81.606-1.466 1.353-1.466.748 0 1.354.656 1.354 1.466v.291h1.365c.748 0 1.354.657 1.354 1.467s-.606 1.467-1.354 1.467h-2.719c-.752 0-1.365.663-1.365 1.479 0 .815.613 1.478 1.365 1.478 2.246 0 4.073 1.98 4.073 4.413 0 1.919-1.137 3.554-2.719 4.16v.543c0 .81-.606 1.467-1.354 1.467-.747 0-1.353-.657-1.353-1.467zm2.177 20.552c-4.878-1.599-9.309-5.59-11.985-10.677l.883.322c.709.259 1.476-.154 1.715-.922.238-.768-.143-1.6-.852-1.858l-3.908-1.424c-.709-.258-1.476.155-1.715.923L2.696 37.56c-.238.768.143 1.6.852 1.858.143.052.288.077.431.077.566 0 1.093-.387 1.283-1l.25-.802a26.986 26.986 0 004.769 6.513c2.597 2.603 5.642 4.527 8.807 5.564.13.043.263.063.392.063.582 0 1.119-.408 1.296-1.042.216-.775-.188-1.594-.904-1.828zm28.042-34.381c-.708-.258-1.476.155-1.715.923l-.249.803a26.99 26.99 0 00-4.8-6.545c-2.59-2.587-5.624-4.5-8.776-5.533-.716-.235-1.472.204-1.688.979-.217.775.188 1.594.904 1.828 4.873 1.597 9.306 5.591 11.983 10.676l-.881-.32c-.709-.26-1.476.154-1.715.922-.238.767.143 1.6.852 1.857l3.907 1.424c.144.052.289.077.432.077.566 0 1.093-.387 1.283-1l1.315-4.233c.238-.768-.143-1.6-.852-1.857z" fill="#C80000"/></svg>