<svg width="53" height="52" fill="none" xmlns="http://www.w3.org/2000/svg"><g clip-path="url(#clip0_22_3677)"><path d="M41.779 4.568h4.666v37.045H41.78V4.568zM32.486 5.91l-.647.201c-.809.256-1.76-.1-2.086-.778a1.216 1.216 0 01-.021-1.022c.167-.384.521-.684.971-.824l7.286-2.27.887 6.492c.05.331-.043.669-.262.948-.268.344-.699.567-1.182.612a1.854 1.854 0 01-.186.01c-.824 0-1.524-.526-1.628-1.221l-.112-.982C27.085 18.735 7.694 31.23 6.853 31.769c-.286.183-.627.28-.989.28-.487 0-.946-.18-1.257-.495a1.256 1.256 0 01-.378-1.033c.043-.392.279-.752.646-.986.197-.127 19.403-12.543 27.61-23.626zm5.52 6.887v28.816H33.34V12.796h4.666zm-8.16 8.563v20.254H25.18V21.359h4.667zm-8.44 8.895V41.61H16.74V30.254h4.667zm-8.921 4.45v6.908H7.819v-6.908h4.666zM47.897 46.06H.625v-3.462h47.273v3.462z" fill="#C80000"/></g><defs><clipPath id="clip0_22_3677"><path fill="#fff" transform="translate(.625)" d="M0 0h52v52H0z"/></clipPath></defs></svg>