<svg width="53" height="52" fill="none" xmlns="http://www.w3.org/2000/svg"><path d="M42.161 34.694c-.275.021-.55.042-.825.042a10.442 10.442 0 01-5.312-1.461 10.47 10.47 0 01-3.834-3.963 9.984 9.984 0 00-3.944 1.197 14.851 14.851 0 01-4.346 4.62 10.285 10.285 0 00.636 10.01 10.253 10.253 0 003.813 3.502 10.23 10.23 0 0010.008-.238 10.257 10.257 0 003.644-3.68 10.286 10.286 0 00.16-10.03zm-4.695 7.512a.626.626 0 01-.105.296.065.065 0 01-.01.043l-3.543 5.265a.798.798 0 01-1.322 0l-3.542-5.265a.063.063 0 01-.01-.043.63.63 0 01-.106-.296c-.01-.01-.01-.021-.01-.043a.816.816 0 01.03-.317c.012-.011.022-.022.022-.032v-.032l3.553-8.158a.822.822 0 011.147-.32.822.822 0 01.301.32l3.553 8.158v.032c0 .01.01.02.021.032a.79.79 0 01.032.317c0 .022 0 .032-.01.043z" fill="#C80000"/><path d="M34.717 43.605l-1.575 2.341-1.565-2.341 1.311.455a.82.82 0 00.518 0l1.311-.456zm.899-1.982l-2.474.848-2.474-.848 2.474-5.69 2.474 5.69zm5.9-26.308a9.467 9.467 0 01-7.793 4.376 8.883 8.883 0 001.31 10.701 8.844 8.844 0 0010.65 1.53 8.864 8.864 0 003.803-4.228c.77-1.79.93-3.783.455-5.673a8.872 8.872 0 00-3.08-4.783 8.842 8.842 0 00-5.345-1.923zm2.21 13.997a3.148 3.148 0 01-2.39-1.113 3.153 3.153 0 01-2.39 1.113 3.188 3.188 0 01-2.139-.834 3.2 3.2 0 011.526-5.502 3.196 3.196 0 011.542-3.89 3.178 3.178 0 014.058.99 3.194 3.194 0 01.406 2.9 3.192 3.192 0 011.94 1.23 3.203 3.203 0 01-.413 4.272 3.188 3.188 0 01-2.14.834z" fill="#C80000"/><path d="M43.726 27.722c.882 0 1.597-.72 1.597-1.61 0-.89-.715-1.61-1.597-1.61s-1.596.72-1.596 1.61c0 .89.714 1.61 1.596 1.61zm-3.183-1.61a1.602 1.602 0 01-.993 1.47 1.595 1.595 0 01-2.17-1.173 1.602 1.602 0 011.567-1.907 1.602 1.602 0 011.596 1.61zm.794-2.543c.881 0 1.596-.72 1.596-1.61 0-.89-.715-1.61-1.596-1.61-.882 0-1.597.72-1.597 1.61 0 .89.715 1.61 1.596 1.61zM33.533 2.167a7.95 7.95 0 00-5.607 2.342 7.982 7.982 0 00-2.323 5.625c.004.75.111 1.494.317 2.214a14.658 14.658 0 013.045 4.292 7.853 7.853 0 004.568 1.472c2.11 0 4.134-.84 5.626-2.335a7.98 7.98 0 000-11.275 7.948 7.948 0 00-5.626-2.335zm-.899 7.172h1.808a2.593 2.593 0 010 5.181h-.105v1.314a.795.795 0 01-.793.795.792.792 0 01-.793-.795v-1.313h-.117a2.578 2.578 0 01-1.817-.762 2.59 2.59 0 01-.752-1.824.796.796 0 01.793-.794.793.793 0 01.793.794.994.994 0 00.983.996h1.808a.998.998 0 001-1.001 1.002 1.002 0 00-1-1.001h-1.808a2.588 2.588 0 010-5.17h.117V4.433a.796.796 0 01.793-.795.792.792 0 01.793.795v1.324h.105a2.57 2.57 0 012.385 1.596c.13.314.196.65.195.99a.796.796 0 01-.793.794.792.792 0 01-.793-.795 1.001 1.001 0 00-.29-.704.992.992 0 00-.704-.291h-1.808a.993.993 0 00-.994.995.997.997 0 00.994.996zm-16.928.414a13.108 13.108 0 00-7.304 2.2 13.149 13.149 0 00-4.851 5.896 13.179 13.179 0 002.824 14.348 13.101 13.101 0 0014.312 2.864 13.131 13.131 0 005.897-4.846 13.173 13.173 0 002.212-7.313 13.158 13.158 0 00-3.83-9.288 13.104 13.104 0 00-9.26-3.861zm5.837 16.39a4.036 4.036 0 01-.895 2.526 4.023 4.023 0 01-2.278 1.406v1.42a.795.795 0 01-.793.794.793.793 0 01-.793-.795V30.16h-1.628v1.335a.795.795 0 01-.793.795.793.793 0 01-.793-.795V30.16h-1.745a.798.798 0 01-.793-.794V16.48a.793.793 0 01.793-.795h1.745v-1.25a.795.795 0 01.793-.795.792.792 0 01.793.795v1.25h1.628v-1.25a.795.795 0 01.793-.795.792.792 0 01.793.795v1.335a4.006 4.006 0 013.08 3.073 4.025 4.025 0 01-1.525 4.079 3.988 3.988 0 011.617 3.22z" fill="#C80000"/><path d="M19.956 26.143a2.417 2.417 0 01-2.41 2.427h-4.928v-4.853h4.928a2.425 2.425 0 012.41 2.426zm0-6.441a2.416 2.416 0 01-2.41 2.426h-4.928v-4.853h4.928a2.425 2.425 0 012.41 2.427z" fill="#C80000"/></svg>