<svg width="119" height="18" fill="none" xmlns="http://www.w3.org/2000/svg"><path d="M6.44 17.668c-1.168 0-2.224-.2-3.168-.6-.928-.4-1.664-.976-2.208-1.728-.544-.752-.824-1.64-.84-2.664h3.6c.048.688.288 1.232.72 1.632.448.4 1.056.6 1.824.6.784 0 1.4-.184 1.848-.552.448-.384.672-.88.672-1.488 0-.496-.152-.904-.456-1.224A3.053 3.053 0 007.28 10.9c-.448-.192-1.072-.4-1.872-.624-1.088-.32-1.976-.632-2.664-.936A4.937 4.937 0 01.992 7.924c-.48-.64-.72-1.488-.72-2.544 0-.992.248-1.856.744-2.592s1.192-1.296 2.088-1.68c.896-.4 1.92-.6 3.072-.6 1.728 0 3.128.424 4.2 1.272 1.088.832 1.688 2 1.8 3.504H8.48c-.032-.576-.28-1.048-.744-1.416-.448-.384-1.048-.576-1.8-.576-.656 0-1.184.168-1.584.504-.384.336-.576.824-.576 1.464 0 .448.144.824.432 1.128.304.288.672.528 1.104.72.448.176 1.072.384 1.872.624 1.088.32 1.976.64 2.664.96.688.32 1.28.8 1.776 1.44.496.64.744 1.48.744 2.52a4.74 4.74 0 01-.696 2.496c-.464.768-1.144 1.384-2.04 1.848-.896.448-1.96.672-3.192.672zM18.641.748V17.5h-3.36V.748h3.36zm14.72 0V3.46h-4.464V17.5h-3.36V3.46h-4.464V.748H33.36zm5.811 2.712v4.2h5.64v2.664h-5.64v4.44h6.36V17.5h-9.72V.724h9.72V3.46h-6.36z" fill="#C80000"/><path d="M57.664 14.836h5.52V17.5h-8.88V.748h3.36v14.088zm15.432 2.832c-1.568 0-3.008-.368-4.32-1.104a8.27 8.27 0 01-3.12-3.048c-.768-1.312-1.152-2.792-1.152-4.44 0-1.632.384-3.096 1.152-4.392a8.216 8.216 0 013.12-3.072C70.088.876 71.528.508 73.096.508c1.584 0 3.024.368 4.32 1.104a8.044 8.044 0 013.096 3.072c.768 1.296 1.152 2.76 1.152 4.392 0 1.648-.384 3.128-1.152 4.44a8.093 8.093 0 01-3.096 3.048c-1.312.736-2.752 1.104-4.32 1.104zm0-3c1.008 0 1.896-.224 2.664-.672.768-.464 1.368-1.12 1.8-1.968.432-.848.648-1.832.648-2.952 0-1.12-.216-2.096-.648-2.928-.432-.848-1.032-1.496-1.8-1.944-.768-.448-1.656-.672-2.664-.672-1.008 0-1.904.224-2.688.672-.768.448-1.368 1.096-1.8 1.944-.432.832-.648 1.808-.648 2.928 0 1.12.216 2.104.648 2.952.432.848 1.032 1.504 1.8 1.968.784.448 1.68.672 2.688.672zm22.732-8.88a3.933 3.933 0 00-1.584-1.608c-.672-.368-1.456-.552-2.352-.552-.992 0-1.872.224-2.64.672-.768.448-1.368 1.088-1.8 1.92-.432.832-.648 1.792-.648 2.88 0 1.12.216 2.096.648 2.928a4.751 4.751 0 001.848 1.92c.784.448 1.696.672 2.736.672 1.28 0 2.328-.336 3.144-1.008.816-.688 1.352-1.64 1.608-2.856h-5.76V8.188h9.072v2.928a7.873 7.873 0 01-1.44 3.24c-.736.992-1.688 1.792-2.856 2.4-1.152.592-2.448.888-3.888.888-1.616 0-3.08-.36-4.392-1.08a8.143 8.143 0 01-3.072-3.048c-.736-1.296-1.104-2.768-1.104-4.416 0-1.648.368-3.12 1.104-4.416a7.92 7.92 0 013.072-3.048C88.836.9 90.292.532 91.892.532c1.888 0 3.528.464 4.92 1.392 1.392.912 2.352 2.2 2.88 3.864h-3.864zm14.534 11.88c-1.568 0-3.008-.368-4.32-1.104a8.27 8.27 0 01-3.12-3.048c-.768-1.312-1.152-2.792-1.152-4.44 0-1.632.384-3.096 1.152-4.392a8.216 8.216 0 013.12-3.072c1.312-.736 2.752-1.104 4.32-1.104 1.584 0 3.024.368 4.32 1.104a8.044 8.044 0 013.096 3.072c.768 1.296 1.152 2.76 1.152 4.392 0 1.648-.384 3.128-1.152 4.44a8.093 8.093 0 01-3.096 3.048c-1.312.736-2.752 1.104-4.32 1.104zm0-3c1.008 0 1.896-.224 2.664-.672.768-.464 1.368-1.12 1.8-1.968.432-.848.648-1.832.648-2.952 0-1.12-.216-2.096-.648-2.928-.432-.848-1.032-1.496-1.8-1.944-.768-.448-1.656-.672-2.664-.672-1.008 0-1.904.224-2.688.672-.768.448-1.368 1.096-1.8 1.944-.432.832-.648 1.808-.648 2.928 0 1.12.216 2.104.648 2.952.432.848 1.032 1.504 1.8 1.968.784.448 1.68.672 2.688.672z" fill="#FBF4F4"/></svg>